<svg width="240" height="240" viewBox="0 0 240 240" fill="none" xmlns="http://www.w3.org/2000/svg">
<path fill-rule="evenodd" clip-rule="evenodd" d="M92.37 61.9467L92.0433 61.3633C91.622 60.6579 91.0277 60.0717 90.3167 59.66L74.66 50.63C73.951 50.2187 73.1463 50.0015 72.3267 50H71.65C70.8304 50.0015 70.0256 50.2187 69.3167 50.63L53.66 59.6833C52.9529 60.0923 52.3656 60.6796 51.9567 61.3867L51.63 61.97C51.2187 62.679 51.0015 63.4837 51 64.3033V82.3867C51.0015 83.2063 51.2187 84.011 51.63 84.72L51.9567 85.3033C52.3762 86.0022 52.9611 86.5872 53.66 87.0067L69.34 96.0367C70.0454 96.4565 70.8525 96.6744 71.6733 96.6667H72.3267C73.1463 96.6652 73.951 96.4479 74.66 96.0367L90.3167 86.9833C91.0308 86.5836 91.6203 85.9941 92.02 85.28L92.37 84.6967C92.7763 83.9856 92.9932 83.1822 93 82.3633V64.28C92.9985 63.4604 92.7813 62.6556 92.37 61.9467ZM71.65 54.6666H72.3267L86 62.5533L72 70.6266L58 62.5533L71.65 54.6666ZM74.3334 90.8334L87.9834 82.9467L88.3334 82.3634V66.59L74.3334 74.6867V90.8334Z" fill="white"/>
<path fill-rule="evenodd" clip-rule="evenodd" d="M91 76.5H179C184.799 76.5 189.5 81.201 189.5 87V109.5C189.5 115.299 184.799 120 179 120H64C56.5442 120 50.5 126.044 50.5 133.5V156C50.5 163.456 56.5442 169.5 64 169.5H151V166.5H64C58.201 166.5 53.5 161.799 53.5 156V133.5C53.5 127.701 58.201 123 64 123H179C186.456 123 192.5 116.956 192.5 109.5V87C192.5 79.5442 186.456 73.5 179 73.5H91V76.5Z" fill="white"/>
<mask id="path-4-inside-1" fill="white">
<path fill-rule="evenodd" clip-rule="evenodd" d="M168.5 190C180.926 190 191 179.926 191 167.5C191 155.074 180.926 145 168.5 145C156.074 145 146 155.074 146 167.5C146 179.926 156.074 190 168.5 190ZM172.525 171.428L174.609 164.888C175.544 162.372 177.341 160.072 180.791 160.072L175.903 171.859C175.041 174.663 172.453 176.531 169.578 176.531C169.578 176.531 168.141 166.325 168.141 166.109L165.984 171.716C165.05 174.159 163.181 176.531 159.731 176.531L157 160C159.731 160.072 161.959 162.156 162.247 164.888C162.247 164.888 162.606 170.925 162.606 171.428L165.122 164.816C166.056 162.372 167.781 160 171.087 160C171.087 160 172.525 170.925 172.525 171.428Z"/>
</mask>
<path fill-rule="evenodd" clip-rule="evenodd" d="M168.5 190C180.926 190 191 179.926 191 167.5C191 155.074 180.926 145 168.5 145C156.074 145 146 155.074 146 167.5C146 179.926 156.074 190 168.5 190ZM172.525 171.428L174.609 164.888C175.544 162.372 177.341 160.072 180.791 160.072L175.903 171.859C175.041 174.663 172.453 176.531 169.578 176.531C169.578 176.531 168.141 166.325 168.141 166.109L165.984 171.716C165.05 174.159 163.181 176.531 159.731 176.531L157 160C159.731 160.072 161.959 162.156 162.247 164.888C162.247 164.888 162.606 170.925 162.606 171.428L165.122 164.816C166.056 162.372 167.781 160 171.087 160C171.087 160 172.525 170.925 172.525 171.428Z" fill="white"/>
<path d="M174.609 164.888L171.797 163.843L171.772 163.909L171.751 163.977L174.609 164.888ZM172.525 171.428H169.525L175.383 172.339L172.525 171.428ZM180.791 160.072L183.562 161.221L185.282 157.072H180.791V160.072ZM175.903 171.859L173.132 170.71L173.078 170.841L173.036 170.977L175.903 171.859ZM169.578 176.531L166.607 176.95L166.971 179.531H169.578V176.531ZM168.141 166.109H171.141L165.341 165.032L168.141 166.109ZM165.984 171.716L163.184 170.639L163.182 170.644L165.984 171.716ZM159.731 176.531L156.771 177.02L157.186 179.531H159.731V176.531ZM157 160L157.079 157.001L153.448 156.905L154.04 160.489L157 160ZM162.247 164.888L165.242 164.709L165.238 164.641L165.23 164.573L162.247 164.888ZM162.606 171.428H159.606L165.41 172.495L162.606 171.428ZM165.122 164.816L162.32 163.744L162.318 163.749L165.122 164.816ZM171.087 160L174.062 159.609L173.719 157H171.087V160ZM188 167.5C188 178.27 179.27 187 168.5 187V193C182.583 193 194 181.583 194 167.5H188ZM168.5 148C179.27 148 188 156.73 188 167.5H194C194 153.417 182.583 142 168.5 142V148ZM149 167.5C149 156.73 157.73 148 168.5 148V142C154.417 142 143 153.417 143 167.5H149ZM168.5 187C157.73 187 149 178.27 149 167.5H143C143 181.583 154.417 193 168.5 193V187ZM171.751 163.977L169.667 170.517L175.383 172.339L177.468 165.798L171.751 163.977ZM180.791 157.072C178.328 157.072 176.306 157.919 174.76 159.297C173.276 160.621 172.367 162.308 171.797 163.843L177.422 165.932C177.786 164.952 178.242 164.231 178.753 163.775C179.202 163.375 179.803 163.072 180.791 163.072V157.072ZM178.674 173.008L183.562 161.221L178.019 158.923L173.132 170.71L178.674 173.008ZM169.578 179.531C173.755 179.531 177.516 176.818 178.77 172.742L173.036 170.977C172.565 172.507 171.151 173.531 169.578 173.531V179.531ZM165.141 166.109C165.141 166.254 165.152 166.374 165.152 166.38C165.156 166.418 165.159 166.452 165.161 166.475C165.167 166.523 165.173 166.575 165.179 166.624C165.191 166.725 165.208 166.856 165.228 167.009C165.268 167.317 165.325 167.74 165.393 168.235C165.528 169.226 165.708 170.525 165.888 171.815C166.068 173.106 166.248 174.389 166.383 175.35C166.45 175.831 166.506 176.23 166.546 176.51C166.565 176.65 166.581 176.76 166.591 176.835C166.597 176.872 166.601 176.901 166.603 176.92C166.605 176.93 166.606 176.937 166.606 176.942C166.607 176.945 166.607 176.947 166.607 176.948C166.607 176.948 166.607 176.949 166.607 176.949C166.607 176.949 166.607 176.949 166.607 176.95C166.607 176.95 166.607 176.95 169.578 176.531C172.549 176.113 172.549 176.113 172.549 176.113C172.549 176.113 172.549 176.113 172.549 176.112C172.549 176.112 172.549 176.112 172.549 176.111C172.548 176.11 172.548 176.108 172.548 176.106C172.547 176.101 172.546 176.093 172.545 176.084C172.542 176.064 172.538 176.036 172.533 175.998C172.522 175.924 172.507 175.814 172.487 175.674C172.448 175.395 172.392 174.996 172.324 174.516C172.19 173.557 172.01 172.275 171.831 170.987C171.651 169.698 171.472 168.406 171.338 167.423C171.27 166.931 171.215 166.521 171.177 166.229C171.158 166.082 171.144 165.972 171.135 165.9C171.109 165.687 171.141 165.888 171.141 166.109H165.141ZM168.784 172.793L170.941 167.186L165.341 165.032L163.184 170.639L168.784 172.793ZM159.731 179.531C164.962 179.531 167.637 175.793 168.787 172.787L163.182 170.644C162.463 172.526 161.401 173.531 159.731 173.531V179.531ZM154.04 160.489L156.771 177.02L162.691 176.042L159.96 159.511L154.04 160.489ZM165.23 164.573C164.788 160.369 161.339 157.113 157.079 157.001L156.921 162.999C158.124 163.031 159.131 163.943 159.263 165.202L165.23 164.573ZM165.606 171.428C165.606 171.064 165.507 169.289 165.422 167.798C165.377 167.01 165.332 166.238 165.298 165.663C165.281 165.375 165.267 165.137 165.257 164.971C165.252 164.887 165.248 164.822 165.246 164.778C165.244 164.755 165.243 164.738 165.243 164.727C165.242 164.721 165.242 164.717 165.242 164.714C165.242 164.712 165.242 164.711 165.242 164.71C165.242 164.71 165.242 164.71 165.242 164.71C165.242 164.709 165.242 164.709 165.242 164.709C165.242 164.709 165.242 164.709 162.247 164.888C159.252 165.066 159.252 165.066 159.252 165.066C159.252 165.066 159.252 165.066 159.252 165.066C159.252 165.066 159.252 165.066 159.252 165.067C159.252 165.068 159.252 165.069 159.252 165.07C159.253 165.073 159.253 165.077 159.253 165.083C159.254 165.094 159.255 165.111 159.256 165.133C159.259 165.177 159.263 165.242 159.268 165.325C159.277 165.491 159.291 165.728 159.308 166.015C159.342 166.588 159.387 167.356 159.431 168.14C159.476 168.925 159.521 169.722 159.554 170.352C159.571 170.668 159.585 170.937 159.594 171.141C159.605 171.378 159.606 171.45 159.606 171.428H165.606ZM162.318 163.749L159.802 170.361L165.41 172.495L167.926 165.882L162.318 163.749ZM171.087 157C165.896 157 163.413 160.884 162.32 163.744L167.924 165.887C168.301 164.901 168.757 164.156 169.264 163.683C169.702 163.274 170.238 163 171.087 163V157ZM175.525 171.428C175.525 171.148 175.471 170.691 175.444 170.455C175.403 170.094 175.346 169.614 175.278 169.064C175.142 167.961 174.962 166.541 174.782 165.143C174.602 163.743 174.422 162.36 174.287 161.326C174.219 160.81 174.163 160.38 174.124 160.08C174.104 159.93 174.089 159.812 174.078 159.732C174.073 159.692 174.069 159.661 174.066 159.64C174.065 159.63 174.064 159.622 174.063 159.617C174.063 159.614 174.062 159.612 174.062 159.611C174.062 159.61 174.062 159.61 174.062 159.609C174.062 159.609 174.062 159.609 174.062 159.609C174.062 159.609 174.062 159.609 171.087 160C168.113 160.391 168.113 160.391 168.113 160.391C168.113 160.392 168.113 160.392 168.113 160.392C168.113 160.392 168.113 160.393 168.113 160.393C168.114 160.395 168.114 160.397 168.114 160.399C168.115 160.404 168.116 160.412 168.117 160.422C168.12 160.443 168.124 160.474 168.129 160.514C168.14 160.594 168.155 160.711 168.175 160.861C168.214 161.16 168.27 161.588 168.337 162.103C168.472 163.134 168.651 164.514 168.831 165.908C169.01 167.304 169.189 168.71 169.323 169.797C169.39 170.341 169.445 170.798 169.482 171.13C169.534 171.588 169.525 171.583 169.525 171.428H175.525Z" fill="white" mask="url(#path-4-inside-1)"/>
<path fill-rule="evenodd" clip-rule="evenodd" d="M139 75C139 78.3137 136.314 81 133 81C129.686 81 127 78.3137 127 75C127 71.6863 129.686 69 133 69C136.314 69 139 71.6863 139 75Z" fill="white"/>
<path fill-rule="evenodd" clip-rule="evenodd" d="M197 98C197 101.314 194.314 104 191 104C187.686 104 185 101.314 185 98C185 94.6863 187.686 92 191 92C194.314 92 197 94.6863 197 98Z" fill="white"/>
<path fill-rule="evenodd" clip-rule="evenodd" d="M154 121C154 124.314 151.314 127 148 127C144.686 127 142 124.314 142 121C142 117.686 144.686 115 148 115C151.314 115 154 117.686 154 121Z" fill="white"/>
<path fill-rule="evenodd" clip-rule="evenodd" d="M99 121C99 124.314 96.3137 127 93 127C89.6863 127 87 124.314 87 121C87 117.686 89.6863 115 93 115C96.3137 115 99 117.686 99 121Z" fill="white"/>
<path fill-rule="evenodd" clip-rule="evenodd" d="M58 145C58 148.314 55.3137 151 52 151C48.6863 151 46 148.314 46 145C46 141.686 48.6863 139 52 139C55.3137 139 58 141.686 58 145Z" fill="white"/>
<path fill-rule="evenodd" clip-rule="evenodd" d="M126 168C126 171.314 123.314 174 120 174C116.686 174 114 171.314 114 168C114 164.686 116.686 162 120 162C123.314 162 126 164.686 126 168Z" fill="white"/>
</svg>
